<?xml version="1.0" encoding="UTF-8"?>
<svg id="Layer_1" xmlns="http://www.w3.org/2000/svg" xmlns:xlink="http://www.w3.org/1999/xlink" version="1.1" viewBox="0 0 2000 1500">
  <!-- Generator: Adobe Illustrator 29.0.0, SVG Export Plug-In . SVG Version: 2.1.0 Build 186)  -->
  <defs>
    <clipPath id="clippath">
      <rect width="2000" height="1500" style="fill: none;"/>
    </clipPath>
  </defs>
  <g style="clip-path: url(#clippath);">
    <rect x="-30.647" y="-24.354" width="2066.198" height="1556.254" style="fill: #ffbf2c;"/>
    <circle cx="315.593" cy="447.278" r="117.663" style="fill: #ff4e02;"/>
    <path d="M-228.15,824.725c83.51-183.61,665.809,265.617,813.19,134.129s-31.045-530.547,220.962-621.811c252.007-91.264,898.203,516.229,1042.192,403.424s-238.069-527.607-167.771-574.668c70.298-47.061,620.347,473.503,508.813,652.024-119.825,191.792-420.805,149.39-616.136,56.032-195.331-93.358-506.352-325.438-617.913-253.061-111.561,72.377,138.261,599.813-225.694,711.653-288.182,88.556-1041.153-324.113-957.642-507.722Z" style="fill: #ff7fa5;"/>
  </g>
</svg>